<mxfile host="Electron" modified="2024-06-04T20:46:13.315Z" agent="Mozilla/5.0 (Windows NT 10.0; Win64; x64) AppleWebKit/537.36 (KHTML, like Gecko) draw.io/24.2.5 Chrome/120.0.6099.109 Electron/28.1.0 Safari/537.36" etag="-Euk58qjOowxv_cbwzGu" version="24.2.5" type="device">
  <diagram name="Page-1" id="AVmDVqZTblsVDvjbswFR">
    <mxGraphModel dx="1750" dy="1035" grid="1" gridSize="10" guides="1" tooltips="1" connect="1" arrows="1" fold="1" page="1" pageScale="1" pageWidth="850" pageHeight="1100" math="0" shadow="0">
      <root>
        <mxCell id="0" />
        <mxCell id="1" parent="0" />
        <mxCell id="KNTrgf19DU3Wl0YZ8gNR-28" style="edgeStyle=orthogonalEdgeStyle;rounded=0;orthogonalLoop=1;jettySize=auto;html=1;exitX=0.75;exitY=1;exitDx=0;exitDy=0;entryX=0.5;entryY=0;entryDx=0;entryDy=0;strokeColor=default;align=center;verticalAlign=middle;fontFamily=Helvetica;fontSize=11;fontColor=default;labelBackgroundColor=default;endArrow=none;endFill=0;" edge="1" parent="1" source="KNTrgf19DU3Wl0YZ8gNR-1" target="KNTrgf19DU3Wl0YZ8gNR-11">
          <mxGeometry relative="1" as="geometry" />
        </mxCell>
        <mxCell id="KNTrgf19DU3Wl0YZ8gNR-29" style="edgeStyle=orthogonalEdgeStyle;rounded=0;orthogonalLoop=1;jettySize=auto;html=1;exitX=0.25;exitY=1;exitDx=0;exitDy=0;entryX=0.5;entryY=0;entryDx=0;entryDy=0;strokeColor=default;align=center;verticalAlign=middle;fontFamily=Helvetica;fontSize=11;fontColor=default;labelBackgroundColor=default;endArrow=none;endFill=0;" edge="1" parent="1" source="KNTrgf19DU3Wl0YZ8gNR-1" target="KNTrgf19DU3Wl0YZ8gNR-4">
          <mxGeometry relative="1" as="geometry" />
        </mxCell>
        <mxCell id="KNTrgf19DU3Wl0YZ8gNR-1" value="Glavni prozor" style="rounded=0;whiteSpace=wrap;html=1;" vertex="1" parent="1">
          <mxGeometry x="535" y="140" width="120" height="60" as="geometry" />
        </mxCell>
        <mxCell id="KNTrgf19DU3Wl0YZ8gNR-35" style="edgeStyle=orthogonalEdgeStyle;rounded=0;orthogonalLoop=1;jettySize=auto;html=1;exitX=0;exitY=1;exitDx=0;exitDy=0;entryX=0;entryY=0.5;entryDx=0;entryDy=0;strokeColor=default;align=center;verticalAlign=middle;fontFamily=Helvetica;fontSize=11;fontColor=default;labelBackgroundColor=default;endArrow=none;endFill=0;" edge="1" parent="1" source="KNTrgf19DU3Wl0YZ8gNR-2" target="KNTrgf19DU3Wl0YZ8gNR-12">
          <mxGeometry relative="1" as="geometry" />
        </mxCell>
        <mxCell id="KNTrgf19DU3Wl0YZ8gNR-36" style="edgeStyle=orthogonalEdgeStyle;rounded=0;orthogonalLoop=1;jettySize=auto;html=1;exitX=0;exitY=1;exitDx=0;exitDy=0;entryX=0;entryY=0.5;entryDx=0;entryDy=0;strokeColor=default;align=center;verticalAlign=middle;fontFamily=Helvetica;fontSize=11;fontColor=default;labelBackgroundColor=default;endArrow=none;endFill=0;" edge="1" parent="1" source="KNTrgf19DU3Wl0YZ8gNR-2" target="KNTrgf19DU3Wl0YZ8gNR-13">
          <mxGeometry relative="1" as="geometry" />
        </mxCell>
        <mxCell id="KNTrgf19DU3Wl0YZ8gNR-37" style="edgeStyle=orthogonalEdgeStyle;rounded=0;orthogonalLoop=1;jettySize=auto;html=1;exitX=0;exitY=1;exitDx=0;exitDy=0;entryX=0;entryY=0.5;entryDx=0;entryDy=0;strokeColor=default;align=center;verticalAlign=middle;fontFamily=Helvetica;fontSize=11;fontColor=default;labelBackgroundColor=default;endArrow=none;endFill=0;" edge="1" parent="1" source="KNTrgf19DU3Wl0YZ8gNR-2" target="KNTrgf19DU3Wl0YZ8gNR-14">
          <mxGeometry relative="1" as="geometry" />
        </mxCell>
        <mxCell id="KNTrgf19DU3Wl0YZ8gNR-38" style="edgeStyle=orthogonalEdgeStyle;rounded=0;orthogonalLoop=1;jettySize=auto;html=1;exitX=0;exitY=1;exitDx=0;exitDy=0;entryX=0;entryY=0.5;entryDx=0;entryDy=0;strokeColor=default;align=center;verticalAlign=middle;fontFamily=Helvetica;fontSize=11;fontColor=default;labelBackgroundColor=default;endArrow=none;endFill=0;" edge="1" parent="1" source="KNTrgf19DU3Wl0YZ8gNR-2" target="KNTrgf19DU3Wl0YZ8gNR-15">
          <mxGeometry relative="1" as="geometry" />
        </mxCell>
        <mxCell id="KNTrgf19DU3Wl0YZ8gNR-2" value="okvir za Meni" style="rounded=0;whiteSpace=wrap;html=1;" vertex="1" parent="1">
          <mxGeometry x="159" y="358" width="120" height="60" as="geometry" />
        </mxCell>
        <mxCell id="KNTrgf19DU3Wl0YZ8gNR-34" style="edgeStyle=orthogonalEdgeStyle;rounded=0;orthogonalLoop=1;jettySize=auto;html=1;exitX=0;exitY=1;exitDx=0;exitDy=0;entryX=0;entryY=0.5;entryDx=0;entryDy=0;strokeColor=default;align=center;verticalAlign=middle;fontFamily=Helvetica;fontSize=11;fontColor=default;labelBackgroundColor=default;endArrow=none;endFill=0;" edge="1" parent="1" source="KNTrgf19DU3Wl0YZ8gNR-3" target="KNTrgf19DU3Wl0YZ8gNR-25">
          <mxGeometry relative="1" as="geometry" />
        </mxCell>
        <mxCell id="KNTrgf19DU3Wl0YZ8gNR-39" style="edgeStyle=orthogonalEdgeStyle;rounded=0;orthogonalLoop=1;jettySize=auto;html=1;exitX=0;exitY=1;exitDx=0;exitDy=0;entryX=0;entryY=0.5;entryDx=0;entryDy=0;strokeColor=default;align=center;verticalAlign=middle;fontFamily=Helvetica;fontSize=11;fontColor=default;labelBackgroundColor=default;endArrow=none;endFill=0;" edge="1" parent="1" source="KNTrgf19DU3Wl0YZ8gNR-3" target="KNTrgf19DU3Wl0YZ8gNR-16">
          <mxGeometry relative="1" as="geometry" />
        </mxCell>
        <mxCell id="KNTrgf19DU3Wl0YZ8gNR-40" style="edgeStyle=orthogonalEdgeStyle;rounded=0;orthogonalLoop=1;jettySize=auto;html=1;exitX=0;exitY=1;exitDx=0;exitDy=0;entryX=0;entryY=0.5;entryDx=0;entryDy=0;strokeColor=default;align=center;verticalAlign=middle;fontFamily=Helvetica;fontSize=11;fontColor=default;labelBackgroundColor=default;endArrow=none;endFill=0;" edge="1" parent="1" source="KNTrgf19DU3Wl0YZ8gNR-3" target="KNTrgf19DU3Wl0YZ8gNR-17">
          <mxGeometry relative="1" as="geometry" />
        </mxCell>
        <mxCell id="KNTrgf19DU3Wl0YZ8gNR-41" style="edgeStyle=orthogonalEdgeStyle;rounded=0;orthogonalLoop=1;jettySize=auto;html=1;exitX=0;exitY=1;exitDx=0;exitDy=0;entryX=0;entryY=0.5;entryDx=0;entryDy=0;strokeColor=default;align=center;verticalAlign=middle;fontFamily=Helvetica;fontSize=11;fontColor=default;labelBackgroundColor=default;endArrow=none;endFill=0;" edge="1" parent="1" source="KNTrgf19DU3Wl0YZ8gNR-3" target="KNTrgf19DU3Wl0YZ8gNR-18">
          <mxGeometry relative="1" as="geometry" />
        </mxCell>
        <mxCell id="KNTrgf19DU3Wl0YZ8gNR-42" style="edgeStyle=orthogonalEdgeStyle;rounded=0;orthogonalLoop=1;jettySize=auto;html=1;exitX=0;exitY=1;exitDx=0;exitDy=0;entryX=0;entryY=0.5;entryDx=0;entryDy=0;strokeColor=default;align=center;verticalAlign=middle;fontFamily=Helvetica;fontSize=11;fontColor=default;labelBackgroundColor=default;endArrow=none;endFill=0;" edge="1" parent="1" source="KNTrgf19DU3Wl0YZ8gNR-3" target="KNTrgf19DU3Wl0YZ8gNR-19">
          <mxGeometry relative="1" as="geometry" />
        </mxCell>
        <mxCell id="KNTrgf19DU3Wl0YZ8gNR-43" style="edgeStyle=orthogonalEdgeStyle;rounded=0;orthogonalLoop=1;jettySize=auto;html=1;exitX=0;exitY=1;exitDx=0;exitDy=0;entryX=0;entryY=0.5;entryDx=0;entryDy=0;strokeColor=default;align=center;verticalAlign=middle;fontFamily=Helvetica;fontSize=11;fontColor=default;labelBackgroundColor=default;endArrow=none;endFill=0;" edge="1" parent="1" source="KNTrgf19DU3Wl0YZ8gNR-3" target="KNTrgf19DU3Wl0YZ8gNR-20">
          <mxGeometry relative="1" as="geometry" />
        </mxCell>
        <mxCell id="KNTrgf19DU3Wl0YZ8gNR-3" value="okvir za listu zadataka" style="rounded=0;whiteSpace=wrap;html=1;" vertex="1" parent="1">
          <mxGeometry x="345" y="358" width="120" height="60" as="geometry" />
        </mxCell>
        <mxCell id="KNTrgf19DU3Wl0YZ8gNR-30" style="edgeStyle=orthogonalEdgeStyle;rounded=0;orthogonalLoop=1;jettySize=auto;html=1;exitX=0;exitY=1;exitDx=0;exitDy=0;entryX=0.5;entryY=0;entryDx=0;entryDy=0;strokeColor=default;align=center;verticalAlign=middle;fontFamily=Helvetica;fontSize=11;fontColor=default;labelBackgroundColor=default;endArrow=none;endFill=0;" edge="1" parent="1" source="KNTrgf19DU3Wl0YZ8gNR-4" target="KNTrgf19DU3Wl0YZ8gNR-2">
          <mxGeometry relative="1" as="geometry" />
        </mxCell>
        <mxCell id="KNTrgf19DU3Wl0YZ8gNR-32" style="edgeStyle=orthogonalEdgeStyle;rounded=0;orthogonalLoop=1;jettySize=auto;html=1;exitX=1;exitY=1;exitDx=0;exitDy=0;entryX=0.5;entryY=0;entryDx=0;entryDy=0;strokeColor=default;align=center;verticalAlign=middle;fontFamily=Helvetica;fontSize=11;fontColor=default;labelBackgroundColor=default;endArrow=none;endFill=0;" edge="1" parent="1" source="KNTrgf19DU3Wl0YZ8gNR-4" target="KNTrgf19DU3Wl0YZ8gNR-7">
          <mxGeometry relative="1" as="geometry" />
        </mxCell>
        <mxCell id="KNTrgf19DU3Wl0YZ8gNR-33" style="edgeStyle=orthogonalEdgeStyle;rounded=0;orthogonalLoop=1;jettySize=auto;html=1;exitX=0.5;exitY=1;exitDx=0;exitDy=0;entryX=0.5;entryY=0;entryDx=0;entryDy=0;strokeColor=default;align=center;verticalAlign=middle;fontFamily=Helvetica;fontSize=11;fontColor=default;labelBackgroundColor=default;endArrow=none;endFill=0;" edge="1" parent="1" source="KNTrgf19DU3Wl0YZ8gNR-4" target="KNTrgf19DU3Wl0YZ8gNR-3">
          <mxGeometry relative="1" as="geometry" />
        </mxCell>
        <mxCell id="KNTrgf19DU3Wl0YZ8gNR-4" value="Okviri" style="rounded=0;whiteSpace=wrap;html=1;" vertex="1" parent="1">
          <mxGeometry x="345" y="240" width="120" height="60" as="geometry" />
        </mxCell>
        <mxCell id="KNTrgf19DU3Wl0YZ8gNR-44" style="edgeStyle=orthogonalEdgeStyle;rounded=0;orthogonalLoop=1;jettySize=auto;html=1;exitX=0;exitY=1;exitDx=0;exitDy=0;entryX=0;entryY=0.5;entryDx=0;entryDy=0;strokeColor=default;align=center;verticalAlign=middle;fontFamily=Helvetica;fontSize=11;fontColor=default;labelBackgroundColor=default;endArrow=none;endFill=0;" edge="1" parent="1" source="KNTrgf19DU3Wl0YZ8gNR-7" target="KNTrgf19DU3Wl0YZ8gNR-26">
          <mxGeometry relative="1" as="geometry" />
        </mxCell>
        <mxCell id="KNTrgf19DU3Wl0YZ8gNR-45" style="edgeStyle=orthogonalEdgeStyle;rounded=0;orthogonalLoop=1;jettySize=auto;html=1;exitX=0;exitY=1;exitDx=0;exitDy=0;entryX=0;entryY=0.5;entryDx=0;entryDy=0;strokeColor=default;align=center;verticalAlign=middle;fontFamily=Helvetica;fontSize=11;fontColor=default;labelBackgroundColor=default;endArrow=none;endFill=0;" edge="1" parent="1" source="KNTrgf19DU3Wl0YZ8gNR-7" target="KNTrgf19DU3Wl0YZ8gNR-21">
          <mxGeometry relative="1" as="geometry" />
        </mxCell>
        <mxCell id="KNTrgf19DU3Wl0YZ8gNR-46" style="edgeStyle=orthogonalEdgeStyle;rounded=0;orthogonalLoop=1;jettySize=auto;html=1;exitX=0;exitY=1;exitDx=0;exitDy=0;entryX=0;entryY=0.5;entryDx=0;entryDy=0;strokeColor=default;align=center;verticalAlign=middle;fontFamily=Helvetica;fontSize=11;fontColor=default;labelBackgroundColor=default;endArrow=none;endFill=0;" edge="1" parent="1" source="KNTrgf19DU3Wl0YZ8gNR-7" target="KNTrgf19DU3Wl0YZ8gNR-22">
          <mxGeometry relative="1" as="geometry" />
        </mxCell>
        <mxCell id="KNTrgf19DU3Wl0YZ8gNR-47" style="edgeStyle=orthogonalEdgeStyle;rounded=0;orthogonalLoop=1;jettySize=auto;html=1;exitX=0;exitY=1;exitDx=0;exitDy=0;entryX=0;entryY=0.5;entryDx=0;entryDy=0;strokeColor=default;align=center;verticalAlign=middle;fontFamily=Helvetica;fontSize=11;fontColor=default;labelBackgroundColor=default;endArrow=none;endFill=0;" edge="1" parent="1" source="KNTrgf19DU3Wl0YZ8gNR-7" target="KNTrgf19DU3Wl0YZ8gNR-23">
          <mxGeometry relative="1" as="geometry" />
        </mxCell>
        <mxCell id="KNTrgf19DU3Wl0YZ8gNR-7" value="okvir za timer" style="rounded=0;whiteSpace=wrap;html=1;" vertex="1" parent="1">
          <mxGeometry x="559" y="360" width="120" height="60" as="geometry" />
        </mxCell>
        <mxCell id="KNTrgf19DU3Wl0YZ8gNR-27" style="edgeStyle=orthogonalEdgeStyle;rounded=0;orthogonalLoop=1;jettySize=auto;html=1;exitX=0.5;exitY=1;exitDx=0;exitDy=0;entryX=0.5;entryY=0;entryDx=0;entryDy=0;endArrow=none;endFill=0;" edge="1" parent="1" source="KNTrgf19DU3Wl0YZ8gNR-10" target="KNTrgf19DU3Wl0YZ8gNR-1">
          <mxGeometry relative="1" as="geometry" />
        </mxCell>
        <mxCell id="KNTrgf19DU3Wl0YZ8gNR-10" value="Kod" style="rounded=0;whiteSpace=wrap;html=1;" vertex="1" parent="1">
          <mxGeometry x="535" y="40" width="120" height="60" as="geometry" />
        </mxCell>
        <mxCell id="KNTrgf19DU3Wl0YZ8gNR-11" value="unos zadatka" style="rounded=0;whiteSpace=wrap;html=1;" vertex="1" parent="1">
          <mxGeometry x="565" y="240" width="120" height="60" as="geometry" />
        </mxCell>
        <mxCell id="KNTrgf19DU3Wl0YZ8gNR-12" value="Gumb Novo" style="rounded=0;whiteSpace=wrap;html=1;fillColor=#e1d5e7;strokeColor=#9673a6;" vertex="1" parent="1">
          <mxGeometry x="179" y="440" width="120" height="60" as="geometry" />
        </mxCell>
        <mxCell id="KNTrgf19DU3Wl0YZ8gNR-13" value="Gumb Otvori" style="rounded=0;whiteSpace=wrap;html=1;fillColor=#e1d5e7;strokeColor=#9673a6;" vertex="1" parent="1">
          <mxGeometry x="179" y="520" width="120" height="60" as="geometry" />
        </mxCell>
        <mxCell id="KNTrgf19DU3Wl0YZ8gNR-14" value="Gumb Spremi kao.." style="rounded=0;whiteSpace=wrap;html=1;fillColor=#e1d5e7;strokeColor=#9673a6;" vertex="1" parent="1">
          <mxGeometry x="179" y="600" width="120" height="60" as="geometry" />
        </mxCell>
        <mxCell id="KNTrgf19DU3Wl0YZ8gNR-15" value="Gumb Zatvori" style="rounded=0;whiteSpace=wrap;html=1;fillColor=#e1d5e7;strokeColor=#9673a6;" vertex="1" parent="1">
          <mxGeometry x="179" y="680" width="120" height="60" as="geometry" />
        </mxCell>
        <mxCell id="KNTrgf19DU3Wl0YZ8gNR-16" value="Gumb Obriši zadatak" style="rounded=0;whiteSpace=wrap;html=1;fillColor=#e1d5e7;strokeColor=#9673a6;" vertex="1" parent="1">
          <mxGeometry x="375" y="520" width="120" height="60" as="geometry" />
        </mxCell>
        <mxCell id="KNTrgf19DU3Wl0YZ8gNR-17" value="Gumb Dodaj zadatak" style="rounded=0;whiteSpace=wrap;html=1;fillColor=#e1d5e7;strokeColor=#9673a6;" vertex="1" parent="1">
          <mxGeometry x="375" y="600" width="120" height="60" as="geometry" />
        </mxCell>
        <mxCell id="KNTrgf19DU3Wl0YZ8gNR-18" value="Gumb Riješi zadatak" style="rounded=0;whiteSpace=wrap;html=1;fillColor=#e1d5e7;strokeColor=#9673a6;" vertex="1" parent="1">
          <mxGeometry x="375" y="680" width="120" height="60" as="geometry" />
        </mxCell>
        <mxCell id="KNTrgf19DU3Wl0YZ8gNR-19" value="Gumb Vrati zadatak" style="rounded=0;whiteSpace=wrap;html=1;fillColor=#e1d5e7;strokeColor=#9673a6;" vertex="1" parent="1">
          <mxGeometry x="375" y="760" width="120" height="60" as="geometry" />
        </mxCell>
        <mxCell id="KNTrgf19DU3Wl0YZ8gNR-20" value="Gumb Izbriši riješene" style="rounded=0;whiteSpace=wrap;html=1;fillColor=#e1d5e7;strokeColor=#9673a6;" vertex="1" parent="1">
          <mxGeometry x="375" y="840" width="120" height="60" as="geometry" />
        </mxCell>
        <mxCell id="KNTrgf19DU3Wl0YZ8gNR-21" value="Gumb Započni" style="rounded=0;whiteSpace=wrap;html=1;fillColor=#e1d5e7;strokeColor=#9673a6;" vertex="1" parent="1">
          <mxGeometry x="599" y="522" width="120" height="60" as="geometry" />
        </mxCell>
        <mxCell id="KNTrgf19DU3Wl0YZ8gNR-22" value="Gumb Pauziraj" style="rounded=0;whiteSpace=wrap;html=1;fillColor=#e1d5e7;strokeColor=#9673a6;" vertex="1" parent="1">
          <mxGeometry x="599" y="602" width="120" height="60" as="geometry" />
        </mxCell>
        <mxCell id="KNTrgf19DU3Wl0YZ8gNR-23" value="Gumb Resetiraj" style="rounded=0;whiteSpace=wrap;html=1;fillColor=#e1d5e7;strokeColor=#9673a6;" vertex="1" parent="1">
          <mxGeometry x="599" y="682" width="120" height="60" as="geometry" />
        </mxCell>
        <mxCell id="KNTrgf19DU3Wl0YZ8gNR-25" value="Prozor u kojemu se prikazuju zadatci" style="rounded=0;whiteSpace=wrap;html=1;" vertex="1" parent="1">
          <mxGeometry x="375" y="440" width="120" height="60" as="geometry" />
        </mxCell>
        <mxCell id="KNTrgf19DU3Wl0YZ8gNR-26" value="Prozor u kojemu se prikazuje tijek vremena" style="rounded=0;whiteSpace=wrap;html=1;" vertex="1" parent="1">
          <mxGeometry x="599" y="442" width="120" height="60" as="geometry" />
        </mxCell>
      </root>
    </mxGraphModel>
  </diagram>
</mxfile>
